<svg xmlns="http://www.w3.org/2000/svg" height="512pt" version="1.1" viewBox="0 0 512 512.00008" width="512pt">
<g id="surface1">
<path d="M 383.996094 307.203125 L 349.863281 307.203125 L 349.863281 247.46875 L 264.53125 315.734375 L 264.53125 247.46875 L 179.199219 315.734375 L 179.199219 247.46875 L 93.867188 315.734375 L 93.867188 247.46875 L 8.53125 298.667969 L 8.53125 503.464844 L 281.597656 503.464844 L 281.597656 384 L 349.863281 384 L 349.863281 503.464844 L 503.460938 503.464844 L 503.460938 307.203125 Z M 93.867188 452.265625 L 59.730469 452.265625 L 59.730469 401.066406 L 93.867188 401.066406 Z M 162.132812 452.265625 L 128 452.265625 L 128 401.066406 L 162.132812 401.066406 Z M 230.398438 452.265625 L 196.265625 452.265625 L 196.265625 401.066406 L 230.398438 401.066406 Z M 230.398438 452.265625 " style=" stroke:none;fill-rule:nonzero;fill:rgb(100%,80.392157%,0%);fill-opacity:1;" />
<path d="M 452.261719 59.738281 L 401.0625 59.738281 L 383.996094 307.203125 L 469.328125 307.203125 Z M 452.261719 59.738281 " style=" stroke:none;fill-rule:nonzero;fill:rgb(67.45098%,67.058824%,69.411765%);fill-opacity:1;" />
<path d="M 281.597656 384 L 349.863281 384 L 349.863281 503.464844 L 281.597656 503.464844 Z M 281.597656 384 " style=" stroke:none;fill-rule:nonzero;fill:rgb(34.117647%,33.72549%,36.078431%);fill-opacity:1;" />
<path d="M 59.730469 401.066406 L 93.867188 401.066406 L 93.867188 452.269531 L 59.730469 452.269531 Z M 59.730469 401.066406 " style=" stroke:none;fill-rule:nonzero;fill:rgb(67.45098%,67.058824%,69.411765%);fill-opacity:1;" />
<path d="M 128 401.066406 L 162.132812 401.066406 L 162.132812 452.269531 L 128 452.269531 Z M 128 401.066406 " style=" stroke:none;fill-rule:nonzero;fill:rgb(67.45098%,67.058824%,69.411765%);fill-opacity:1;" />
<path d="M 196.265625 401.066406 L 230.398438 401.066406 L 230.398438 452.269531 L 196.265625 452.269531 Z M 196.265625 401.066406 " style=" stroke:none;fill-rule:nonzero;fill:rgb(67.45098%,67.058824%,69.411765%);fill-opacity:1;" />
<path d="M 503.460938 298.667969 L 477.289062 298.667969 L 460.796875 59.15625 C 460.492188 54.671875 456.757812 51.191406 452.261719 51.203125 L 401.0625 51.203125 C 396.566406 51.191406 392.835938 54.671875 392.53125 59.15625 L 376.035156 298.667969 L 358.398438 298.667969 L 358.398438 247.46875 C 358.398438 242.753906 354.578125 238.933594 349.867188 238.933594 C 347.925781 238.929688 346.046875 239.589844 344.53125 240.804688 L 273.0625 297.976562 L 273.0625 247.46875 C 273.066406 242.753906 269.246094 238.933594 264.535156 238.929688 C 262.59375 238.929688 260.710938 239.589844 259.199219 240.800781 L 187.730469 297.976562 L 187.730469 247.464844 C 187.734375 242.753906 183.914062 238.933594 179.199219 238.929688 C 177.261719 238.929688 175.378906 239.589844 173.863281 240.800781 L 102.398438 297.972656 L 102.398438 247.464844 C 102.398438 242.753906 98.574219 238.933594 93.863281 238.933594 C 92.316406 238.933594 90.796875 239.355469 89.46875 240.152344 L 4.136719 291.355469 C 1.570312 292.898438 0 295.671875 0 298.667969 L 0 503.464844 C 0 508.179688 3.820312 512 8.535156 512 L 503.460938 512 C 508.175781 512 511.996094 508.179688 511.996094 503.464844 L 511.996094 307.203125 C 511.996094 302.488281 508.175781 298.667969 503.460938 298.667969 Z M 409.035156 68.269531 L 444.292969 68.269531 L 460.191406 298.667969 L 393.136719 298.667969 Z M 290.128906 494.933594 L 290.128906 392.535156 L 341.332031 392.535156 L 341.332031 494.933594 Z M 494.929688 494.933594 L 358.394531 494.933594 L 358.394531 384 C 358.394531 379.289062 354.574219 375.46875 349.863281 375.46875 L 281.597656 375.46875 C 276.882812 375.46875 273.0625 379.289062 273.0625 384 L 273.0625 494.933594 L 17.066406 494.933594 L 17.066406 303.5 L 85.332031 262.539062 L 85.332031 315.734375 C 85.332031 320.449219 89.148438 324.269531 93.863281 324.273438 C 95.800781 324.273438 97.683594 323.613281 99.199219 322.398438 L 170.664062 265.226562 L 170.664062 315.734375 C 170.664062 320.449219 174.484375 324.269531 179.195312 324.273438 C 181.136719 324.273438 183.015625 323.613281 184.53125 322.402344 L 256 265.226562 L 256 315.738281 C 255.996094 320.449219 259.816406 324.273438 264.527344 324.273438 C 266.46875 324.273438 268.351562 323.613281 269.863281 322.402344 L 341.332031 265.230469 L 341.332031 307.203125 C 341.332031 311.917969 345.152344 315.738281 349.863281 315.738281 L 494.929688 315.738281 Z M 494.929688 494.933594 " style=" stroke:none;fill-rule:nonzero;fill:rgb(13.72549%,12.156863%,12.54902%);fill-opacity:1;" />
<path d="M 290.070312 17.070312 C 293.175781 18.734375 295.976562 20.902344 298.367188 23.488281 C 303.148438 29.316406 309.964844 33.125 317.4375 34.136719 C 325.304688 33.132812 332.496094 29.167969 337.542969 23.042969 C 339.699219 20.777344 342.117188 18.773438 344.742188 17.070312 C 346.5 17.148438 351.101562 21.457031 353.574219 23.769531 C 358.179688 29.464844 364.792969 33.175781 372.050781 34.136719 C 380.425781 33.074219 388.085938 28.871094 393.484375 22.378906 C 395.578125 20.417969 398.742188 17.4375 399.355469 17.070312 C 403.9375 17.070312 404.988281 18.589844 407.804688 22.652344 C 411.507812 29.648438 418.746094 34.058594 426.664062 34.136719 C 431.375 34.136719 435.195312 30.316406 435.195312 25.605469 C 435.195312 20.890625 431.375 17.070312 426.664062 17.070312 C 424.957031 17.070312 424.625 16.953125 421.851562 12.949219 C 417.320312 4.808594 408.671875 -0.167969 399.355469 0.00390625 C 392.453125 0.960938 386.171875 4.511719 381.796875 9.9375 C 378.960938 12.609375 374.207031 17.070312 372.410156 17.113281 C 369.765625 15.511719 367.347656 13.5625 365.222656 11.320312 C 360.089844 5.074219 352.761719 1.023438 344.742188 0.00390625 C 337.347656 1.011719 330.609375 4.78125 325.875 10.550781 C 323.480469 13.117188 320.714844 15.3125 317.675781 17.070312 C 314.828125 15.441406 312.242188 13.402344 309.996094 11.011719 C 305.007812 4.957031 297.910156 1.023438 290.128906 0.00390625 C 285.417969 -0.0117188 281.582031 3.792969 281.566406 8.507812 C 281.550781 13.222656 285.359375 17.054688 290.070312 17.070312 Z M 290.070312 17.070312 " style=" stroke:none;fill-rule:nonzero;fill:rgb(13.72549%,12.156863%,12.54902%);fill-opacity:1;" />
<path d="M 93.867188 392.535156 L 59.730469 392.535156 C 55.019531 392.535156 51.199219 396.355469 51.199219 401.066406 L 51.199219 452.269531 C 51.199219 456.980469 55.019531 460.800781 59.730469 460.800781 L 93.867188 460.800781 C 98.578125 460.800781 102.398438 456.980469 102.398438 452.269531 L 102.398438 401.066406 C 102.398438 396.355469 98.578125 392.535156 93.867188 392.535156 Z M 85.332031 443.734375 L 68.265625 443.734375 L 68.265625 409.601562 L 85.332031 409.601562 Z M 85.332031 443.734375 " style=" stroke:none;fill-rule:nonzero;fill:rgb(13.72549%,12.156863%,12.54902%);fill-opacity:1;" />
<path d="M 162.132812 392.535156 L 128 392.535156 C 123.285156 392.535156 119.464844 396.355469 119.464844 401.066406 L 119.464844 452.269531 C 119.464844 456.980469 123.285156 460.800781 128 460.800781 L 162.132812 460.800781 C 166.84375 460.800781 170.664062 456.980469 170.664062 452.269531 L 170.664062 401.066406 C 170.664062 396.355469 166.84375 392.535156 162.132812 392.535156 Z M 153.597656 443.734375 L 136.53125 443.734375 L 136.53125 409.601562 L 153.597656 409.601562 Z M 153.597656 443.734375 " style=" stroke:none;fill-rule:nonzero;fill:rgb(13.72549%,12.156863%,12.54902%);fill-opacity:1;" />
<path d="M 230.398438 392.535156 L 196.265625 392.535156 C 191.550781 392.535156 187.730469 396.355469 187.730469 401.066406 L 187.730469 452.269531 C 187.730469 456.980469 191.550781 460.800781 196.265625 460.800781 L 230.398438 460.800781 C 235.109375 460.800781 238.929688 456.980469 238.929688 452.269531 L 238.929688 401.066406 C 238.929688 396.355469 235.109375 392.535156 230.398438 392.535156 Z M 221.863281 443.734375 L 204.796875 443.734375 L 204.796875 409.601562 L 221.863281 409.601562 Z M 221.863281 443.734375 " style=" stroke:none;fill-rule:nonzero;fill:rgb(13.72549%,12.156863%,12.54902%);fill-opacity:1;" />
</g>
</svg>